Coordinates
version=1
nRows=9
nColumns=63
inDegrees=yes

Units are S.I. units (second, meters, Newtons, ...)
If the header above contains a line with 'inDegrees', this indicates whether rotational values are in degrees (yes) or radians (no).

endheader
time	pelvis_tilt	pelvis_list	pelvis_rotation	pelvis_tx	pelvis_ty	pelvis_tz	hip_flexion_r	hip_adduction_r	hip_rotation_r	knee_angle_r	knee_angle_r_beta	ankle_angle_r	subtalar_angle_r	mtp_angle_r	hip_flexion_l	hip_adduction_l	hip_rotation_l	knee_angle_l	knee_angle_l_beta	ankle_angle_l	subtalar_angle_l	mtp_angle_l	L5_S1_Flex_Ext	L5_S1_Lat_Bending	L5_S1_axial_rotation	L4_L5_Flex_Ext	L4_L5_Lat_Bending	L4_L5_axial_rotation	L3_L4_Flex_Ext	L3_L4_Lat_Bending	L3_L4_axial_rotation	L2_L3_Flex_Ext	L2_L3_Lat_Bending	L2_L3_axial_rotation	L1_L2_Flex_Ext	L1_L2_Lat_Bending	L1_L2_axial_rotation	L1_T12_Flex_Ext	L1_T12_Lat_Bending	L1_T12_axial_rotation	Abs_r3	Abs_r2	Abs_r1	Abs_t1	Abs_t2	neck_flexion	neck_bending	neck_rotation	arm_flex_r	arm_add_r	arm_rot_r	elbow_flex_r	pro_sup_r	wrist_flex_r	wrist_dev_r	arm_flex_l	arm_add_l	arm_rot_l	elbow_flex_l	pro_sup_l	wrist_flex_l	wrist_dev_l
11.237288	-1.928585	-10.613528	86.449286	0.184334	0.804269	0.699613	14.442822	2.647658	7.401550	14.917436	0.260358	21.218356	-14.640796	0.000000	9.503471	-1.015693	0.213023	2.984382	0.052087	31.198633	-0.277640	0.000000	0.294825	-0.624369	0.599105	0.547519	-0.830411	0.636549	0.484368	-1.518091	0.636549	0.336955	-1.518091	0.524217	0.273774	-1.273214	0.486772	0.168463	-0.967148	0.449328	2.105905	-7.062990	3.332040	0.000000	0.000000	10.616986	-7.244062	-11.506100	-4.297455	-15.902933	49.862985	31.471006	62.089826	-9.347840	-9.411114	7.847393	-18.292117	98.703694	18.861722	33.688830	-15.288948	-17.824048
11.254237	-2.060787	-10.807190	86.291063	0.185025	0.803542	0.700320	15.074979	2.624296	7.493749	15.684976	0.273754	21.327581	-14.966235	0.000000	10.109761	-0.906089	0.794459	3.730782	0.065114	31.334897	-1.602130	0.000000	0.299748	-0.646815	0.618244	0.556662	-0.860265	0.656885	0.492456	-1.572667	0.656885	0.342582	-1.572667	0.540964	0.278346	-1.318986	0.502323	0.171276	-1.001917	0.463683	2.141072	-7.316906	3.438489	0.000000	0.000000	10.990766	-6.865986	-11.641211	-4.421115	-15.818061	48.916593	31.734865	62.821527	-9.097168	-9.069750	7.427385	-18.497507	94.612545	19.376109	38.167964	-15.755327	-17.145274
11.271186	-2.227641	-11.083055	86.133245	0.185735	0.802602	0.701035	15.802298	2.577624	7.619691	16.481426	0.287655	21.510496	-15.228526	0.000000	10.918665	-0.753087	1.493426	4.714708	0.082287	31.511506	-3.133548	0.000000	0.308805	-0.675481	0.622084	0.573481	-0.898389	0.660965	0.507335	-1.642364	0.660965	0.352933	-1.642364	0.544324	0.286756	-1.377440	0.505444	0.176451	-1.046319	0.466563	2.205761	-7.641172	3.459847	0.000000	0.000000	11.471187	-6.463485	-11.867342	-4.505472	-15.718453	48.072264	32.011840	63.505662	-8.824713	-8.753170	6.857364	-18.752105	89.790237	20.078908	43.091747	-16.047013	-16.344884
11.288136	-2.446143	-11.414324	85.938305	0.186584	0.801487	0.701683	16.585475	2.498807	7.755763	17.284630	0.301674	21.792490	-15.345922	0.000000	11.870139	-0.552437	2.255672	5.889229	0.102786	31.712103	-4.843527	0.000000	0.319537	-0.713149	0.613508	0.593413	-0.948489	0.651852	0.524968	-1.733951	0.651852	0.365199	-1.733951	0.536819	0.296722	-1.454254	0.498475	0.182584	-1.104668	0.460131	2.282424	-8.067288	3.412146	0.000000	0.000000	12.040489	-6.055274	-12.163259	-4.489912	-15.585095	47.553035	32.238672	63.950786	-8.506431	-8.464108	6.104220	-19.078105	84.212929	21.037982	48.296522	-15.944317	-15.434915
11.305085	-2.694789	-11.816054	85.729699	0.187540	0.800177	0.702317	17.432223	2.406978	7.911053	18.072782	0.315430	22.164384	-15.308225	0.000000	12.980370	-0.323955	3.101369	7.245153	0.126452	31.920612	-6.668655	0.000000	0.332992	-0.756302	0.594703	0.618399	-1.005882	0.631872	0.547072	-1.838873	0.631872	0.380576	-1.838873	0.520365	0.309216	-1.542251	0.483196	0.190271	-1.171512	0.446027	2.378526	-8.555440	3.307560	0.000000	0.000000	12.706048	-5.673080	-12.485432	-4.412475	-15.423802	47.223070	32.435487	64.219305	-8.120541	-8.163479	5.311962	-19.466733	78.566041	22.114549	53.531992	-15.817592	-14.549886
11.322034	-2.949252	-12.276042	85.556787	0.188527	0.798696	0.702930	18.306497	2.322421	8.103153	18.806875	0.328242	22.588452	-15.221031	0.000000	14.237186	-0.088597	4.008506	8.771650	0.153094	32.144912	-8.524665	0.000000	0.348954	-0.801158	0.555107	0.648043	-1.065540	0.589801	0.573297	-1.947935	0.589801	0.398820	-1.947935	0.485719	0.324039	-1.633721	0.451025	0.199393	-1.240994	0.416330	2.492546	-9.062859	3.087339	0.000000	0.000000	13.419273	-5.292755	-12.713090	-4.285662	-15.230702	47.028545	32.570512	64.485367	-7.798184	-7.928468	4.464624	-19.890427	72.888470	23.265824	58.676355	-15.776658	-13.741429
11.338983	-3.191770	-12.769179	85.422879	0.189565	0.797097	0.703506	19.170377	2.256884	8.315761	19.466924	0.339762	23.052166	-15.091440	0.000000	15.590352	0.142074	4.941428	10.424600	0.181944	32.391206	-10.335007	0.000000	0.365724	-0.846721	0.505885	0.679187	-1.126139	0.537502	0.600848	-2.058718	0.537502	0.417986	-2.058718	0.442649	0.339612	-1.726634	0.411031	0.208975	-1.311571	0.379414	2.612332	-9.578278	2.813579	0.000000	0.000000	14.082333	-4.912026	-12.905258	-4.124260	-15.003524	46.964279	32.630019	64.648533	-7.474315	-7.709852	3.639621	-20.341006	67.383939	24.438709	63.752655	-15.787315	-12.961772
11.355932	-3.411336	-13.277088	85.324284	0.190644	0.795434	0.704023	19.993710	2.202421	8.415441	20.033681	0.349654	23.591251	-14.728641	0.000000	16.998332	0.354770	5.735676	12.164084	0.212303	32.691024	-11.877757	0.000000	0.383473	-0.891957	0.453779	0.712148	-1.186302	0.482140	0.630008	-2.168703	0.482140	0.438272	-2.168703	0.397057	0.356093	-1.818878	0.368696	0.219117	-1.381641	0.340334	2.739112	-10.089991	2.523783	0.000000	0.000000	14.585067	-4.495771	-13.065424	-3.941883	-14.740546	47.047917	32.598913	64.615874	-7.181363	-7.524414	2.866245	-20.800286	62.183825	25.597288	68.677329	-15.904215	-12.252691
11.372881	-3.587676	-13.792042	85.254764	0.191809	0.793754	0.704431	20.731102	2.202482	8.634756	20.439850	0.356743	24.053984	-14.534534	0.000000	18.416878	0.527681	6.530858	13.928596	0.243100	33.020957	-13.326388	0.000000	0.404745	-0.935254	0.408193	0.751652	-1.243887	0.433705	0.664956	-2.273976	0.433705	0.462583	-2.273976	0.357169	0.375846	-1.907169	0.331657	0.231271	-1.448708	0.306145	2.891053	-10.579777	2.270247	0.000000	0.000000	14.814245	-4.030154	-13.228775	-3.794248	-14.418681	47.107005	32.455299	64.524126	-6.904483	-7.368875	2.209217	-21.242271	57.619939	26.710763	73.235343	-16.048225	-11.515446
